<svg id="Capa_1" data-name="Capa 1" xmlns="http://www.w3.org/2000/svg" viewBox="0 0 166.7 45.9"><defs><style>.cls-1{fill:#9f2c2c;}</style></defs><title>logo</title><path class="cls-1" d="M28.2,28.9c-.1-.3-.1-.4.2-.6a6,6,0,0,0,2.9-3.1,14.2,14.2,0,0,0,.2-10.7A6.3,6.3,0,0,0,27,10.4a13,13,0,0,0-2.8-.4H17.6V44.7h5V28.4c.4-.1.5,0,.6.3l3.3,12.1,1.1,3.9H33v-.4Zm-1.9-5.4a3.3,3.3,0,0,1-3.4,1.4h-.3V15.2a3.8,3.8,0,0,1,4.2,2.1A6.3,6.3,0,0,1,26.3,23.5Zm22.9-7a12.6,12.6,0,0,0-2-4.8,5.9,5.9,0,0,0-8.8-.8A8.4,8.4,0,0,0,36.3,14a28.4,28.4,0,0,0-1.6,8.4,74.1,74.1,0,0,0-.1,8.5,38.9,38.9,0,0,0,.9,7.4,12.2,12.2,0,0,0,2.1,4.7,5.9,5.9,0,0,0,6.6,2.1A6.5,6.5,0,0,0,47.8,42a15.4,15.4,0,0,0,1.7-4.6,49,49,0,0,0,.8-10.2c0-.9-.1-2.2-.1-3.5A39.1,39.1,0,0,0,49.3,16.5ZM44.4,37a9.3,9.3,0,0,1-.4,1.4l-.4.7a1.3,1.3,0,0,1-2.2,0,4.3,4.3,0,0,1-.8-2c-.2-1.6-.4-3.3-.5-4.9s0-3.4,0-5.1h-.1c.1-2.5.2-4.9.3-7.4a11.6,11.6,0,0,1,.6-3.5,4.4,4.4,0,0,1,.6-1.1,1.3,1.3,0,0,1,2.1,0,4.5,4.5,0,0,1,.8,1.9,23.9,23.9,0,0,1,.6,4.9c.1,2.8.1,5.6.1,8.4A34.7,34.7,0,0,1,44.4,37ZM79.6,10H74.4c-.2,0-.2.1-.3.3l-.8,4.6L70.9,28.7l-2.4,14-.3,2h5.1v-.3c.3-1.7.5-3.3.8-5s.2-.4.4-.4h4.9l.8,5.6h5.4L79.7,10ZM74.9,33.8c.6-6.3,1.2-13.2,1.8-18.8.4,0,.4-.1.5.1S78.3,30.7,78.6,33v.8ZM14.5,15.3a7.6,7.6,0,0,0-2.4-3.8A7.2,7.2,0,0,0,7.5,10H1.4V44.7H6.4V33.3h.8a7.1,7.1,0,0,0,5.8-3.1,10.6,10.6,0,0,0,1.5-3.3,21.5,21.5,0,0,0,.6-7.1A18.2,18.2,0,0,0,14.5,15.3ZM9.7,25.1a6.4,6.4,0,0,1-.7,1.6,2.6,2.6,0,0,1-2.5,1.2V15.1a3.1,3.1,0,0,1,2.9,1.8,8,8,0,0,1,.7,2.7A14.9,14.9,0,0,1,9.7,25.1Zm58,10.2-4.1-1.9h-.3v.4c-.1,1-.3,2-.4,3a5.3,5.3,0,0,1-.9,2.3,1.6,1.6,0,0,1-2.8-.1,4.9,4.9,0,0,1-.5-1,11,11,0,0,1-.6-3.5c-.1-2.7-.2-5.4-.2-8.1a47.9,47.9,0,0,1,.5-7.8,6.8,6.8,0,0,1,.8-2.6,1.7,1.7,0,0,1,3.1-.1,6,6,0,0,1,.7,1.8c.2.9.3,1.7.4,2.6h.1l4.4-1.9a.4.4,0,0,0,.1-.3c0-.4-.1-.8-.2-1.1a13.5,13.5,0,0,0-1.9-4.9,6.4,6.4,0,0,0-9.4-1.2A9,9,0,0,0,54,14.3a27.8,27.8,0,0,0-1.6,8.7c-.1,2.6-.1,5.1-.1,7.7a34.5,34.5,0,0,0,.9,7.3,14.3,14.3,0,0,0,2,4.9,6.1,6.1,0,0,0,8.9,1.3,9,9,0,0,0,2.6-3.6,19.6,19.6,0,0,0,1.2-4.9A.3.3,0,0,0,67.7,35.3Zm39.1-6.1h6V23.7h-6V15.4h6V10H101.7V44.7h11.1V39.1h-6ZM87.6,44.7h5.1V29.1h6V23.7h-6V15.4h6V10H87.6ZM106.2,6.8a.7.7,0,0,0,.6-.3l2.4-2.9L111.9.5h-4a.5.5,0,0,0-.5.3l-2.6,5.6-.2.4Zm59.1,26.1h0l-.3-.2h-7l1.5-.9a19.7,19.7,0,0,0,2.5-1.4,7,7,0,0,0,2.8-6.5,9.9,9.9,0,0,1,.4-4.4,4.7,4.7,0,0,0,.2-1.5.6.6,0,0,0-.3-.4,1.6,1.6,0,0,0-2.5.7,5.5,5.5,0,0,0-.7,2.6c0,1.2,0,2.3.1,3.5a4.3,4.3,0,0,1-1.2,3.3,8.2,8.2,0,0,1-2.7,1.8,9.1,9.1,0,0,0-3.2,2.3l-.4.4a1.7,1.7,0,0,1-1.2.5h-4.6v-.2a4.7,4.7,0,0,1,2.3-2.9l2.6-1.5a7.2,7.2,0,0,0,3.9-6.8c0-.7-.1-1.5-.1-2.2a4.8,4.8,0,0,1,2.2-4.5,3,3,0,0,0,.8-.8,1.1,1.1,0,0,0-.9-1.7,3.1,3.1,0,0,0-2.5,1.1,7.7,7.7,0,0,0-2.3,6.3c.1.6.1,1.3.1,1.9a4.5,4.5,0,0,1-2.2,4.2l-2.6,1.4a7,7,0,0,0-3.3,3,17,17,0,0,0-.9,2.3c-.1.3,0,.4-.3.4h-4.6c-.1,0-.2-.4-.2-.5a5,5,0,0,1,2.4-5.4l3.2-1.8a6.6,6.6,0,0,0,3-3.3,8.7,8.7,0,0,0,.5-3.1q0-1.6,0-3.2a3.8,3.8,0,0,1,2.2-3.8l2-1a10.3,10.3,0,0,0,3-2.2,4.2,4.2,0,0,0,.7-1.3,1.5,1.5,0,0,0-.6-1.6,1.5,1.5,0,0,0-1.9.4l-.4.6a3.8,3.8,0,0,1-1.3,1.3L150.9,9a6.5,6.5,0,0,0-4,6.1c0,1.1,0,2.2,0,3.2a5.6,5.6,0,0,1-.4,2.1,5.1,5.1,0,0,1-2.4,2.5l-2.4,1.3a7.2,7.2,0,0,0-3.5,4,11.2,11.2,0,0,0-.5,3.9c0,.4,0,.5-.4.5H132a.3.3,0,0,0-.2.3v7.2h0v.2a1.5,1.5,0,0,0,1.2,1.4h.3a1.5,1.5,0,0,0,1.5-1.5v-.2h0V35.3h27.7v4.7h0v.2a1.5,1.5,0,0,0,3,0v-.2h0Z"/></svg>